<?xml version="1.0" encoding="iso-8859-1"?>
<!-- Generator: Adobe Illustrator 19.0.0, SVG Export Plug-In . SVG Version: 6.00 Build 0)  -->
<svg version="1.1" id="Capa_1" xmlns="http://www.w3.org/2000/svg" xmlns:xlink="http://www.w3.org/1999/xlink" x="0px" y="0px"
	 viewBox="0 0 496 496" style="enable-background:new 0 0 496 496;" xml:space="preserve">
<g>
	<circle style="fill:#FFCB57;" cx="96" cy="96" r="88"/>
	<circle style="fill:#FFCB57;" cx="400" cy="96" r="88"/>
</g>
<g>
	<rect x="208" y="88" style="fill:#E56565;" width="16" height="16"/>
	<polygon style="fill:#E56565;" points="250.792,137.928 261.208,150.072 324.296,96 261.208,41.928 250.792,54.072 290.376,88 
		240,88 240,104 290.376,104 	"/>
	<rect x="296" y="408" style="fill:#E56565;" width="16" height="16"/>
	<polygon style="fill:#E56565;" points="269.208,374.072 258.792,361.928 195.704,416 258.792,470.072 269.208,457.928 229.624,424 
		280,424 280,408 229.624,408 	"/>
</g>
<g>
	<polygon style="fill:#3F3A34;" points="128,480 104,480 104,384 88,384 88,480 64,480 64,384 48,384 48,496 144,496 144,384 
		128,384 	"/>
	<path style="fill:#3F3A34;" d="M168,184c-13.232,0-24,10.768-24,24v40c0,8.824-7.176,16-16,16h-4.448
		c2.752-4.728,4.448-10.144,4.448-16v-16c0-17.648-14.352-32-32-32s-32,14.352-32,32v16c0,5.856,1.696,11.272,4.448,16H64
		c-8.824,0-16-7.176-16-16v-40c0-13.232-10.768-24-24-24S0,194.768,0,208v48c0,28.168,20.896,51.536,48,55.432V368h96v-56.568
		c27.104-3.888,48-27.264,48-55.432v-48C192,194.768,181.232,184,168,184z M168,200c4.408,0,8,3.584,8,8v16h-16v-16
		C160,203.584,163.592,200,168,200z M80,248v-16c0-8.824,7.176-16,16-16s16,7.176,16,16v16c0,8.824-7.176,16-16,16
		S80,256.824,80,248z M24,200c4.408,0,8,3.584,8,8v16H16v-16C16,203.584,19.592,200,24,200z M136,296h-8v56H64v-56h-8
		c-22.056,0-40-17.944-40-40v-16h16v8c0,17.648,14.352,32,32,32h64c17.648,0,32-14.352,32-32v-8h16v16
		C176,278.056,158.056,296,136,296z"/>
	<polygon style="fill:#3F3A34;" points="432,480 408,480 408,384 392,384 392,480 368,480 368,384 352,384 352,496 448,496 448,384 
		432,384 	"/>
	<path style="fill:#3F3A34;" d="M472,184c-13.232,0-24,10.768-24,24v40c0,8.824-7.176,16-16,16h-4.448
		c2.752-4.728,4.448-10.144,4.448-16v-16c0-17.648-14.352-32-32-32s-32,14.352-32,32v16c0,5.856,1.696,11.272,4.448,16H368
		c-8.824,0-16-7.176-16-16v-40c0-13.232-10.768-24-24-24s-24,10.768-24,24v48c0,28.168,20.896,51.536,48,55.432V368h96v-56.568
		c27.104-3.888,48-27.264,48-55.432v-48C496,194.768,485.232,184,472,184z M472,200c4.408,0,8,3.584,8,8v16h-16v-16
		C464,203.584,467.592,200,472,200z M384,248v-16c0-8.824,7.176-16,16-16s16,7.176,16,16v16c0,8.824-7.176,16-16,16
		S384,256.824,384,248z M328,200c4.408,0,8,3.584,8,8v16h-16v-16C320,203.584,323.592,200,328,200z M440,296h-8v56h-64v-56h-8
		c-22.056,0-40-17.944-40-40v-16h16v8c0,17.648,14.352,32,32,32h64c17.648,0,32-14.352,32-32v-8h16v16
		C480,278.056,462.056,296,440,296z"/>
	<path style="fill:#3F3A34;" d="M96,0C43.064,0,0,43.064,0,96s43.064,96,96,96s96-43.064,96-96S148.936,0,96,0z M96,176
		c-44.112,0-80-35.888-80-80s35.888-80,80-80s80,35.888,80,80S140.112,176,96,176z"/>
	<path style="fill:#3F3A34;" d="M120,57.472V40h-16v16H88V40H72v16H56v80h16v16h16v-16h16v16h16v-17.472
		c9.288-3.312,16-12.112,16-22.528c0-6.144-2.32-11.752-6.128-16C133.68,91.752,136,86.144,136,80
		C136,69.584,129.288,60.784,120,57.472z M112,120H72v-16h40c4.408,0,8,3.584,8,8S116.408,120,112,120z M112,88H72V72h40
		c4.408,0,8,3.584,8,8S116.408,88,112,88z"/>
	<path style="fill:#3F3A34;" d="M360,104v8c0,13.232,10.768,24,24,24h8v16h16v-16h8c13.232,0,24-10.768,24-24s-10.768-24-24-24h-32
		c-4.408,0-8-3.584-8-8s3.592-8,8-8h32c4.408,0,8,3.584,8,8v8h16v-8c0-13.232-10.768-24-24-24h-8V40h-16v16h-8
		c-13.232,0-24,10.768-24,24s10.768,24,24,24h32c4.408,0,8,3.584,8,8s-3.592,8-8,8h-32c-4.408,0-8-3.584-8-8v-8H360z"/>
	<path style="fill:#3F3A34;" d="M323.096,117.824l-15.392,4.36C319.344,163.288,357.296,192,400,192c52.936,0,96-43.064,96-96
		S452.936,0,400,0c-42.704,0-80.656,28.712-92.296,69.824l15.392,4.36C332.8,39.92,364.424,16,400,16c44.112,0,80,35.888,80,80
		s-35.888,80-80,80C364.424,176,332.8,152.08,323.096,117.824z"/>
</g>
<g>
</g>
<g>
</g>
<g>
</g>
<g>
</g>
<g>
</g>
<g>
</g>
<g>
</g>
<g>
</g>
<g>
</g>
<g>
</g>
<g>
</g>
<g>
</g>
<g>
</g>
<g>
</g>
<g>
</g>
</svg>
