<?xml version="1.0" encoding="iso-8859-1"?>
<!-- Generator: Adobe Illustrator 19.0.0, SVG Export Plug-In . SVG Version: 6.00 Build 0)  -->
<svg version="1.1" id="Capa_1" xmlns="http://www.w3.org/2000/svg" xmlns:xlink="http://www.w3.org/1999/xlink" x="0px" y="0px"
	 viewBox="0 0 512 512" style="enable-background:new 0 0 512 512;" xml:space="preserve">
<path style="fill:#FEC9BD;" d="M127.46,458.169l123.245,36.897c39.112,12.288,81.534,8.18,117.562-11.382l14.15-7.683l56.075-30.447
	l36.189-19.649c12.196-6.622,15.695-22.514,7.409-33.646l0,0c-6.388-8.582-17.884-11.567-27.641-7.177l-63.785,28.7
	c-24.699,11.113-52.547,13.079-78.561,5.544l-8.796-2.547l-64.903-19.115l61.519,18.055c12.292,3.607,25.385-2.238,30.905-13.798
	l0,0c6.573-13.764-0.006-30.207-14.259-35.639l-76.057-28.986c-18.498-7.05-38.975-6.86-57.34,0.53l-80.766,32.504L127.46,458.169z"
	/>
<rect x="43.449" y="347.989" transform="matrix(0.9659 -0.2588 0.2588 0.9659 -106.6086 34.1629)" style="fill:#63CE68;" width="65.998" height="147.994"/>
<circle style="fill:#FEDBAB;" cx="303.408" cy="161.999" r="151.999"/>
<circle style="fill:#FEB756;" cx="303.408" cy="161.999" r="120.309"/>
<path d="M490.11,386.289c-9.117-12.248-25.84-16.591-39.766-10.325l-63.785,28.7c-16.154,7.268-33.823,10.221-51.277,8.785
	c1.762-2.179,3.309-4.584,4.566-7.218c4.333-9.073,4.676-19.632,0.941-28.968c-3.735-9.336-11.267-16.744-20.663-20.325
	l-76.057-28.986c-20.916-7.969-43.87-7.756-64.633,0.599l-75.392,30.341l-5.231-19.521c-1.43-5.334-6.913-8.504-12.248-7.071
	l-63.75,17.082c-5.334,1.43-8.5,6.913-7.071,12.247c1.429,5.334,6.912,8.501,12.248,7.071l54.092-14.494l33.129,123.638
	L61.12,492.338c-5.334,1.43-8.5,6.913-7.071,12.247c1.197,4.468,5.237,7.415,9.653,7.415c0.856-0.001,1.728-0.111,2.595-0.344
	l63.75-17.082c2.562-0.687,4.746-2.362,6.072-4.659c1.326-2.297,1.686-5.026,0.999-7.588l-27.86-103.974l77.645-31.248
	c16.077-6.473,33.85-6.636,50.045-0.464l76.057,28.986c4.252,1.62,7.525,4.84,9.216,9.065c1.69,4.225,1.542,8.813-0.42,12.919
	c-3.423,7.17-11.441,10.753-19.064,8.512l-61.52-18.055c-5.298-1.551-10.855,1.48-12.411,6.779c-1.555,5.3,1.48,10.856,6.779,12.412
	l73.733,21.672c28.266,8.186,58.611,6.045,85.446-6.03l63.785-28.7c5.433-2.442,11.959-0.75,15.516,4.028
	c2.25,3.022,3.043,6.714,2.232,10.394c-0.81,3.68-3.08,6.696-6.391,8.494l-36.189,19.649c-4.853,2.636-6.651,8.706-4.016,13.56
	c1.813,3.338,5.249,5.23,8.797,5.23c1.612,0,3.247-0.391,4.763-1.214l36.188-19.649c8.363-4.541,14.333-12.475,16.38-21.769
	C497.878,403.63,495.792,393.923,490.11,386.289z"/>
<path d="M408.811,451.669c-2.64,0-5.21,1.069-7.07,2.93c-1.87,1.86-2.93,4.44-2.93,7.07c0,2.64,1.06,5.21,2.93,7.069
	c1.86,1.87,4.44,2.931,7.07,2.931c2.63,0,5.21-1.061,7.07-2.931c1.86-1.859,2.93-4.439,2.93-7.069s-1.07-5.2-2.93-7.07
	C414.02,452.738,411.441,451.669,408.811,451.669z"/>
<path d="M373.308,469.568l-9.812,5.328c-33.457,18.164-73.474,22.04-109.794,10.63l-89.163-28.013
	c-5.27-1.656-10.882,1.273-12.537,6.543c-1.656,5.269,1.274,10.882,6.543,12.537l89.163,28.013
	c15.668,4.923,31.936,7.353,48.179,7.353c26.735,0,53.396-6.587,77.153-19.486l9.812-5.328c4.854-2.636,6.651-8.707,4.016-13.561
	C384.232,468.732,378.163,466.934,373.308,469.568z"/>
<path d="M80.474,461.068c1.86-1.859,2.93-4.439,2.93-7.069c0-2.641-1.07-5.21-2.93-7.07c-1.86-1.86-4.44-2.93-7.07-2.93
	s-5.21,1.069-7.07,2.93c-1.86,1.86-2.93,4.44-2.93,7.07s1.07,5.21,2.93,7.069c1.86,1.86,4.44,2.931,7.07,2.931
	S78.614,462.929,80.474,461.068z"/>
<path d="M303.404,323.997c89.326,0,161.999-72.672,161.999-161.999S392.731,0,303.404,0S141.406,72.672,141.406,161.999
	S214.078,323.997,303.404,323.997z M303.404,20c78.298,0,141.999,63.701,141.999,141.999s-63.7,141.999-141.999,141.999
	s-141.999-63.701-141.999-141.999S225.106,20,303.404,20z"/>
<path d="M257.444,220.934c-3.813,1.41-6.537,5.068-6.537,9.371c0,5.522,4.477,10,10,10h13.501v8.581c0,5.522,4.477,10,10,10
	c5.523,0,10-4.478,10-10v-8.581h7v8.581c0,5.522,4.477,10,10,10c5.523,0,10-4.478,10-10v-9.317
	c20.471-3.76,36.035-21.723,36.035-43.264c0-13.682-6.279-25.924-16.104-34c9.826-8.076,16.104-20.318,16.104-34
	c0-21.541-15.564-39.504-36.035-43.264v-9.318c0-5.522-4.477-10-10-10c-5.523,0-10,4.478-10,10v8.582h-7v-8.582
	c0-5.522-4.477-10-10-10c-5.523,0-10,4.478-10,10v8.582h-13.501c-5.523,0-10,4.478-10,10c0,4.303,2.723,7.961,6.537,9.371V220.934z
	 M337.443,196.306c0,13.233-10.766,24-24,24h-36v-48h36C326.677,172.307,337.443,183.073,337.443,196.306z M337.443,128.307
	c0,13.233-10.766,24-24,24h-36v-48h36C326.677,104.307,337.443,115.073,337.443,128.307z"/>
<path d="M206.552,214.457c-22.849-42.405-14.992-95.835,19.106-129.932c20.776-20.776,48.4-32.219,77.781-32.219
	c29.382,0,57.005,11.441,77.78,32.218c42.889,42.889,42.889,112.674,0,155.562c-34.099,34.097-87.529,41.956-129.934,19.104
	c-4.861-2.617-10.927-0.803-13.547,4.061c-2.62,4.861-0.802,10.927,4.06,13.547c18.885,10.176,40.334,15.487,61.846,15.487
	c5.946,0,11.898-0.406,17.8-1.228c28.185-3.921,53.745-16.657,73.916-36.829c50.688-50.688,50.688-133.16,0-183.848
	c-24.554-24.554-57.199-38.075-91.922-38.075c-34.725,0-67.37,13.522-91.923,38.076c-20.172,20.172-32.908,45.731-36.83,73.915
	c-3.792,27.256,1.271,55.541,14.26,79.645c2.619,4.861,8.685,6.681,13.546,4.061C207.355,225.384,209.172,219.318,206.552,214.457z"
	/>
<path d="M211.499,240.099l-0.078,0.078c-3.893,3.917-3.873,10.249,0.044,14.142c1.951,1.939,4.499,2.907,7.049,2.907
	c2.569,0,5.139-0.984,7.093-2.951l0.078-0.078c3.893-3.917,3.873-10.249-0.044-14.142
	C221.724,236.161,215.393,236.181,211.499,240.099z"/>
<g>
</g>
<g>
</g>
<g>
</g>
<g>
</g>
<g>
</g>
<g>
</g>
<g>
</g>
<g>
</g>
<g>
</g>
<g>
</g>
<g>
</g>
<g>
</g>
<g>
</g>
<g>
</g>
<g>
</g>
</svg>
