<?xml version="1.0" encoding="iso-8859-1"?>
<!-- Generator: Adobe Illustrator 19.0.0, SVG Export Plug-In . SVG Version: 6.00 Build 0)  -->
<svg version="1.1" id="Capa_1" xmlns="http://www.w3.org/2000/svg" xmlns:xlink="http://www.w3.org/1999/xlink" x="0px" y="0px"
	 viewBox="0 0 512.001 512.001" style="enable-background:new 0 0 512.001 512.001;" xml:space="preserve">
<g>
	<circle style="fill:#FEB756;" cx="255.23" cy="289.748" r="91.1"/>
	<ellipse style="fill:#FEB756;" cx="255.35" cy="82.822" rx="72.329" ry="72.369"/>
	<ellipse style="fill:#FEB756;" cx="434.156" cy="399.448" rx="68.345" ry="68.385"/>
	<ellipse style="fill:#FEB756;" cx="78.787" cy="399.448" rx="68.345" ry="68.385"/>
</g>
<path d="M355.369,113.549c2.634,0,5.217-1.071,7.078-2.934c1.862-1.861,2.933-4.444,2.933-7.077c0-2.634-1.07-5.216-2.933-7.078
	c-1.861-1.862-4.444-2.933-7.078-2.933c-2.643,0-5.216,1.07-7.077,2.933c-1.862,1.862-2.934,4.444-2.934,7.078
	c0,2.633,1.071,5.216,2.934,7.077C350.153,112.477,352.726,113.549,355.369,113.549z"/>
<path d="M360.572,461.413c-31.607,19.439-68.034,29.716-105.343,29.716c-42.71,0-84.465-13.701-118.779-38.763
	c25.802-28.552,27.296-72.605,1.882-102.907c-13.453-16.04-32.342-25.879-53.19-27.704c-20.854-1.827-41.159,4.583-57.192,18.041
	v0.001c-33.091,27.781-37.423,77.319-9.657,110.428c13.453,16.04,32.342,25.879,53.19,27.704c2.331,0.203,4.652,0.305,6.964,0.305
	c15.128,0,29.74-4.344,42.38-12.55c38.426,29.365,85.854,45.467,134.401,45.467c41.015,0,81.069-11.301,115.833-32.683
	c4.709-2.897,6.179-9.062,3.282-13.772C371.447,459.987,365.285,458.516,360.572,461.413z M73.23,457.983
	c-15.519-1.358-29.58-8.684-39.595-20.625c-20.675-24.654-17.45-61.541,7.19-82.229v0.001c11.934-10.02,27.055-14.789,42.572-13.431
	c15.519,1.357,29.58,8.682,39.595,20.625c20.676,24.654,17.451,61.54-7.19,82.228C103.868,454.572,88.745,459.338,73.23,457.983z"/>
<path d="M44.561,317.458c0.276,0,0.558-0.012,0.838-0.035c5.51-0.457,9.607-5.294,9.15-10.804
	c-0.462-5.569-0.696-11.243-0.696-16.868c0-80.378,48.409-153.319,121.568-184.941c3.018,11.195,8.435,21.924,16.362,31.375
	c14.136,16.857,33.988,27.197,55.899,29.115c2.449,0.214,4.888,0.319,7.318,0.319c19.306,0,37.821-6.717,52.787-19.281
	c34.776-29.197,39.329-81.258,10.149-116.053c-14.137-16.857-33.989-27.197-55.9-29.115c-21.903-1.913-43.255,4.817-60.104,18.96
	v0.001c-19.656,16.502-29.649,40.31-29.36,64.176c-39.392,15.839-73.148,42.459-97.927,77.328
	c-26.699,37.569-40.813,81.872-40.813,128.115c0,6.174,0.257,12.407,0.765,18.522C35.028,313.502,39.405,317.458,44.561,317.458z
	 M214.802,35.466L214.802,35.466c12.751-10.704,28.901-15.801,45.486-14.349c16.581,1.452,31.605,9.277,42.304,22.035
	c22.09,26.341,18.644,65.751-7.681,87.853c-12.752,10.705-28.914,15.796-45.485,14.35c-16.581-1.452-31.605-9.277-42.304-22.035
	C185.032,96.979,188.478,57.568,214.802,35.466z"/>
<path d="M255.229,188.641c-55.752,0-101.111,45.359-101.111,101.111s45.359,101.111,101.111,101.111S356.34,345.503,356.34,289.751
	S310.982,188.641,255.229,188.641z M255.229,370.84c-44.712,0-81.089-36.377-81.089-81.089s36.377-81.089,81.089-81.089
	s81.089,36.377,81.089,81.089S299.941,370.84,255.229,370.84z"/>
<path d="M265.119,239.411v-2.315c0-5.528-4.483-10.011-10.011-10.011c-5.528,0-10.011,4.483-10.011,10.011v2.246h-9.282h-8.775
	c-5.528,0-10.011,4.483-10.011,10.011c0,5.109,3.83,9.316,8.775,9.927v30.535v30.536c-4.943,0.611-8.775,4.818-8.775,9.927
	c0,5.528,4.483,10.011,10.011,10.011h8.775h6.284h2.998v2.114c0,5.528,4.483,10.011,10.011,10.011
	c5.528,0,10.011-4.483,10.011-10.011v-2.182c15.778-1,28.31-14.147,28.31-30.174c0-7.774-2.949-14.869-7.786-20.232
	c4.836-5.363,7.786-12.459,7.786-20.231C293.43,253.56,280.897,240.412,265.119,239.411z M273.408,269.585
	c0,5.635-4.585,10.22-10.22,10.22h-17.362v-20.44h17.362C268.822,259.365,273.408,263.95,273.408,269.585z M263.188,320.269h-17.362
	v-20.441h17.362c5.635,0,10.22,4.585,10.22,10.221C273.408,315.684,268.822,320.269,263.188,320.269z"/>
<path d="M493.707,349.459c-6.035-7.196-13.169-13.131-21.079-17.667c2.649-13.791,4-27.9,4-42.041
	c0-35.352-8.538-70.52-24.693-101.704c-15.628-30.168-38.401-56.762-65.858-76.909c-4.46-3.271-10.723-2.309-13.994,2.148
	c-3.272,4.458-2.309,10.723,2.148,13.994c51.579,37.847,82.374,98.584,82.374,162.471c0,11.526-0.986,23.022-2.919,34.307
	c-4.279-1.12-8.675-1.909-13.17-2.303c-20.858-1.827-41.16,4.583-57.192,18.041v0.001c-33.091,27.781-37.423,77.319-9.657,110.428
	c13.453,16.04,32.342,25.879,53.19,27.704c2.331,0.203,4.652,0.305,6.964,0.305c18.371,0,35.987-6.392,50.228-18.347
	C517.141,432.104,521.473,382.567,493.707,349.459z M471.176,444.553c-11.935,10.02-27.057,14.786-42.572,13.431
	c-15.519-1.358-29.58-8.684-39.595-20.625c-20.675-24.654-17.45-61.541,7.19-82.229v0.001c11.934-10.02,27.056-14.789,42.572-13.431
	c15.519,1.357,29.58,8.682,39.595,20.625C499.042,386.979,495.817,423.865,471.176,444.553z"/>
<path d="M255.341,92.523c4.04,0,7.454,2.674,7.454,5.839c0,3.165-3.414,5.839-7.454,5.839c-3.65,0-6.173-1.997-7.055-3.977
	c-2.249-5.051-8.166-7.324-13.217-5.072c-5.051,2.248-7.321,8.167-5.072,13.217c2.951,6.627,8.582,11.64,15.428,14.122
	c0.64,4.912,4.83,8.71,9.917,8.71c5.094,0,9.289-3.807,9.92-8.73c10.261-3.753,17.556-13.142,17.556-24.11
	c0-14.26-12.326-25.861-27.476-25.861c-4.04,0-7.453-2.674-7.453-5.839c0-3.165,3.413-5.839,7.453-5.839
	c3.612,0,6.135,1.972,7.031,3.926c2.306,5.026,8.249,7.231,13.274,4.924c5.025-2.306,7.23-8.247,4.924-13.274
	c-2.983-6.504-8.585-11.428-15.355-13.876c-0.761-4.774-4.885-8.427-9.874-8.427c-4.992,0-9.12,3.659-9.876,8.439
	c-10.283,3.742-17.6,13.142-17.6,24.126C227.865,80.921,240.191,92.523,255.341,92.523z"/>
<path d="M95.596,363.519l-17.527,18.99l-16.552-17.99c-3.743-4.068-10.077-4.333-14.145-0.59c-4.068,3.744-4.333,10.077-0.59,14.145
	l15.578,16.93c-5.455,0.085-9.854,4.528-9.854,10.003c0,5.528,4.483,10.011,10.011,10.011h5.529v1.606h-5.529
	c-5.528,0-10.011,4.483-10.011,10.011s4.483,10.011,10.011,10.011h5.797c1.029,4.434,4.996,7.741,9.743,7.741
	c4.746,0,8.714-3.308,9.743-7.741h6.784c5.528,0,10.011-4.483,10.011-10.011s-4.483-10.011-10.011-10.011h-6.517v-1.606h6.517
	c5.528,0,10.011-4.483,10.011-10.011s-4.483-10.011-10.011-10.011h-0.797l16.521-17.9c3.749-4.063,3.496-10.396-0.567-14.146
	C105.679,359.202,99.346,359.457,95.596,363.519z"/>
<path d="M438.255,376.217c2.818,0,5.539,0.77,8.088,2.285c4.751,2.83,10.894,1.269,13.722-3.483
	c2.828-4.75,1.269-10.895-3.483-13.722c-5.609-3.339-11.946-5.104-18.328-5.104c-15.8,0-29.417,10.561-35.481,25.67h-1.978
	c-5.528,0-10.011,4.483-10.011,10.011c0,3.968,2.316,7.388,5.664,9.008c-3.349,1.62-5.664,5.039-5.664,9.008
	c0,5.528,4.483,10.011,10.011,10.011h3.239c6.565,13.559,19.44,22.796,34.22,22.796c6.382,0,12.719-1.765,18.328-5.104
	c4.751-2.827,6.311-8.972,3.483-13.722c-2.826-4.749-8.971-6.31-13.722-3.483c-2.549,1.517-5.27,2.285-8.088,2.285
	c-3.224,0-6.259-1.006-8.914-2.774h6.471c5.528,0,10.011-4.483,10.011-10.011c0-3.425-1.723-6.445-4.346-8.25
	c4.477-0.997,7.827-4.987,7.827-9.765c0-5.528-4.483-10.011-10.011-10.011h-13.323C429.272,378.349,433.564,376.217,438.255,376.217
	z"/>
<g>
</g>
<g>
</g>
<g>
</g>
<g>
</g>
<g>
</g>
<g>
</g>
<g>
</g>
<g>
</g>
<g>
</g>
<g>
</g>
<g>
</g>
<g>
</g>
<g>
</g>
<g>
</g>
<g>
</g>
</svg>
